<svg width="209" height="187" viewBox="0 0 209 187" fill="none" xmlns="http://www.w3.org/2000/svg">
<path d="M111.059 183.42C107.599 184.642 101.901 184.642 98.4415 183.42C68.934 173.334 3 131.26 3 59.9479C3 28.4686 28.3358 3 59.573 3C78.0915 3 94.4733 11.965 104.75 25.8199C115.027 11.965 131.51 3 149.927 3C181.164 3 206.5 28.4686 206.5 59.9479C206.5 131.26 140.566 173.334 111.059 183.42Z" fill="#44BDB6" stroke="#44BDB6" stroke-width="5" stroke-linecap="round" stroke-linejoin="round"/>
<path d="M70.5835 63.6594C70.1342 63.6162 69.3903 64.3362 68.9561 64.5605C68.6182 64.7349 67.8685 65.1146 67.4995 65.1102C67.264 65.1076 66.7583 64.8591 66.5139 64.7826C66.3859 64.8258 66.2807 64.8631 66.1757 64.9507C65.9841 65.1106 65.8538 65.3131 65.8395 65.567C65.8154 65.9976 66.1804 66.3128 66.4572 66.5899C66.9078 66.907 67.438 67.0944 67.9886 67.1283C68.7679 67.176 69.6273 66.9545 70.2118 66.4223C70.7134 65.9655 70.9498 65.3602 70.9625 64.6891C70.9702 64.2777 70.8716 63.9544 70.5835 63.6594Z" fill="white"/>
<path d="M132.598 84.4092L132.507 84.3992C132.315 84.4073 132.241 84.4373 132.1 84.5528C132.098 84.6782 132.111 84.7781 132.185 84.8839C132.652 85.5431 133.539 85.9965 134.261 86.3049C137.267 87.5895 140.783 87.8653 144.001 88.2721C144.2 88.2223 144.354 88.1862 144.521 88.0578L144.487 87.8915C144.098 87.5501 143.597 87.3995 143.112 87.2534C141.858 86.8763 140.547 86.7593 139.261 86.5289C138.292 86.3553 137.314 86.1462 136.368 85.8736C135.067 85.499 133.849 84.911 132.598 84.4092Z" fill="white"/>
<path d="M69.6569 38.0272C69.546 38.0106 69.4272 37.9923 69.3152 38.0034C69.0844 38.0261 68.8427 38.1985 68.7148 38.3862C68.4086 38.8358 68.4718 39.4172 68.4071 39.9299C68.3274 40.5599 68.2156 41.2126 68.0806 41.8325C67.7662 43.2753 67.2864 44.6587 66.7856 46.0449C66.5497 46.6981 65.8824 48.0099 66.044 48.6534C66.1854 48.8309 66.3065 48.8638 66.5139 48.926C66.6694 48.9664 66.7767 48.9805 66.9347 48.9371C67.3865 48.8129 67.6842 48.4789 67.9154 48.0916C68.2787 47.483 68.4948 46.8296 68.7405 46.1688C69.25 44.7989 69.6308 43.3937 69.9091 41.9594C70.0673 41.145 70.26 40.038 70.0468 39.2231C69.9289 38.7725 70.0166 38.3654 69.6569 38.0272Z" fill="white"/>
<path d="M119.216 91.7328L118.95 91.674C118.754 91.7465 118.717 91.7348 118.614 91.9122C118.669 92.1441 118.752 92.2955 118.9 92.4831C119.388 93.1029 120.033 93.5989 120.653 94.0783C122.955 95.8577 125.634 97.0882 128.369 98.0364C129.456 98.4127 130.511 98.7839 131.663 98.8981L131.837 98.885C132.042 98.7134 131.8 98.4442 131.885 98.2114C131.921 98.112 132.125 98.0525 132.191 97.8715C131.903 97.3346 129.914 96.9085 129.278 96.6868C126.979 95.8866 124.641 94.9962 122.518 93.7965C121.385 93.1565 120.385 92.317 119.216 91.7328Z" fill="white"/>
<path d="M52.1025 39.7504L51.9298 39.7259C51.7959 39.7746 51.6986 39.8176 51.5895 39.9117C51.2997 40.161 51.162 40.3777 51.1219 40.7555C51.2472 41.2253 51.558 41.6178 51.8091 42.0274C52.7312 43.5302 53.5099 45.1555 54.2532 46.7546C54.726 47.7719 55.1665 48.8375 55.7354 49.8053C55.9635 50.1932 56.2671 50.4656 56.601 50.7574L56.8684 50.8926C57.0684 50.9727 57.1914 51.0393 57.3916 50.9586C57.4621 50.6236 57.3669 50.3095 57.294 49.9817C57.132 49.2553 56.891 48.5482 56.6406 47.8482C56.0261 46.1299 55.306 44.4277 54.4775 42.8018C53.9302 41.7275 53.2382 40.2889 52.1025 39.7504Z" fill="white"/>
<path d="M39.7145 48.3439L39.4344 48.3274C39.2632 48.4276 39.1134 48.5716 39.0399 48.7611C38.9566 48.976 39.0169 49.1 39.1014 49.2996C39.6495 49.7766 40.3849 50.0678 41.0148 50.4341C41.6744 50.8178 42.2661 51.307 42.8285 51.8209C43.9459 52.8423 44.8045 54.1368 45.6738 55.3682C46.2083 56.1257 46.7061 56.9847 47.4628 57.545C47.8827 57.8557 48.3722 58.0152 48.8692 58.1494C49.0098 58.157 49.1782 58.1519 49.311 58.0989C49.5293 58.0118 49.6204 57.9509 49.6979 57.736C49.5727 57.3045 49.3677 56.9467 49.1266 56.5715C48.4998 55.5959 47.7218 54.6999 46.9836 53.8069C44.9897 51.3952 42.9024 49.0433 39.7145 48.3439Z" fill="white"/>
<path d="M144.58 89.3633C144.26 89.2651 144.01 89.3467 143.701 89.4572C143.104 89.6711 142.562 90.0895 141.977 90.3538C140.537 91.004 138.891 91.4183 137.339 91.7001C133.996 92.3072 130.47 92.0491 127.188 91.2202C126.656 91.0858 126.127 90.9432 125.606 90.7713C124.899 90.5381 124.231 90.2687 123.475 90.3264L123.435 90.4403C123.588 90.783 123.871 90.9253 124.174 91.1225C125.567 91.9213 127.031 92.5034 128.597 92.8656C132.253 93.7105 136.058 93.4879 139.636 92.4101C140.968 92.0091 142.243 91.5505 143.424 90.802C143.897 90.5027 144.554 90.074 144.684 89.5069L144.58 89.3633Z" fill="white"/>
<path d="M159.836 75.0753C159.62 75.1062 159.333 75.3025 159.139 75.4109C158.638 75.6889 158.149 75.9902 157.626 76.2241C156.974 76.5152 156.241 76.7211 155.548 76.8923C155.113 78.5729 154.36 79.7504 153.015 80.8694C150.399 83.046 146.05 83.6387 142.749 83.3499C140.722 83.1725 138.75 82.7173 136.73 82.5163C137.119 82.9703 137.481 83.2849 137.976 83.6129L139.236 84.1936C143.381 85.7946 148.566 86.156 152.674 84.308C155.056 83.2364 157.088 81.5322 158.514 79.3432C158.897 78.7561 159.253 78.2019 159.502 77.5447C159.761 76.8595 160.158 75.7879 159.836 75.0753Z" fill="white"/>
<path d="M126.167 118.585C126.038 118.545 125.978 118.55 125.846 118.56C125.622 118.686 125.533 118.767 125.39 118.98C125.364 119.201 125.358 119.388 125.449 119.595C125.772 120.328 126.353 120.984 126.811 121.636C127.638 122.814 128.459 124.004 129.25 125.207C130.765 127.511 132.246 129.839 133.742 132.155C135.476 134.839 137.124 137.555 139.184 140.008C140.171 141.184 141.356 142.51 142.818 143.077C143.508 143.345 144.051 143.281 144.719 142.998C145.175 142.687 145.5 142.328 145.859 141.912L145.599 141.934C145.405 141.949 145.19 141.977 144.999 141.932C144.699 141.862 144.374 141.626 144.115 141.462C143.372 140.992 142.762 140.399 142.146 139.777C140.491 138.109 139.135 136.149 137.799 134.226C136.822 132.819 135.829 131.417 134.824 130.03C132.997 127.513 131.119 125.029 129.287 122.514C128.678 121.678 128.109 120.822 127.486 119.995C127.085 119.462 126.741 118.949 126.167 118.585Z" fill="white"/>
<path d="M169.717 63.2354C168.844 64.0798 167.761 64.9096 166.683 65.4667C166.216 65.708 165.728 65.8683 165.254 66.0903C165.219 66.1069 164.996 66.2019 164.984 66.218C164.925 66.3015 164.901 66.8293 164.874 66.9664C164.664 68.0553 164.039 69.2299 163.168 69.945C161.618 71.2154 159.861 72.0752 157.992 72.7737C153.743 74.3617 149.509 74.7916 145.008 74.7876C143.749 74.7867 142.43 74.846 141.181 74.6916L141.075 74.6781C141.37 74.9837 141.64 75.2174 142.002 75.4414C143.604 76.2765 145.879 76.2971 147.661 76.3604C150.928 76.4765 154.171 75.8524 157.331 75.1196C158.471 74.8551 159.572 74.6357 160.66 74.1832C162.622 73.3679 164.433 72.2183 165.977 70.7578C168.099 68.7503 169.641 66.1997 169.717 63.2354Z" fill="white"/>
<path d="M170.694 56.5712C170.004 57.2517 169.335 57.9362 168.546 58.5039C167.249 59.4361 165.767 60.2039 164.357 60.9529C161.685 62.3722 158.894 63.778 156.051 64.8192C154.058 65.5488 152.046 66.0649 150.016 66.6599C149.477 66.8179 148.851 67.0537 148.572 67.5725C148.563 67.8988 148.524 67.9248 148.748 68.1827C149.031 68.3658 149.391 68.3648 149.717 68.3645C150.893 68.3632 152.081 68.1852 153.245 68.025C155.67 67.6911 158.009 67.1521 160.358 66.4759C163.174 65.6649 166.546 64.5726 168.638 62.4226C170.23 60.7874 170.705 58.7889 170.694 56.5712Z" fill="white"/>
<path d="M71.6834 57.6998C68.5804 57.6457 65.5922 58.1588 62.8859 59.7475C61.2643 60.6995 59.8896 61.9216 58.7807 63.4373C58.347 64.0302 57.899 64.7277 57.7291 65.4496C57.6364 65.8436 57.5749 66.4291 57.7868 66.7713C58.1255 66.7132 58.3779 66.0924 58.5429 65.8085C59.2909 64.5207 60.2848 63.4958 61.3972 62.5149C64.8434 59.4764 69.5903 58.8094 74.0228 59.1169C79.485 59.496 84.0229 61.824 87.9659 65.5508C89.058 66.5829 90.0468 67.7161 91.0386 68.8431C92.9518 71.0966 94.9284 73.2761 96.9701 75.4135C97.7863 76.2682 98.5922 77.1135 99.4559 77.9223C100.049 78.4777 100.742 79.1194 101.513 79.4118C101.703 79.484 101.744 79.5139 101.926 79.4327C102.02 79.2956 102.075 79.2315 102.089 79.0596C102.11 78.7891 101.585 78.387 101.386 78.2003C97.135 74.2002 93.6889 69.4714 89.6278 65.2953C85.898 61.4599 81.145 58.6409 75.7889 57.8983C74.4346 57.7107 73.0485 57.7199 71.6834 57.6998Z" fill="white"/>
<path d="M80.2877 91.6609L80.1965 91.6703C80.0871 91.696 79.9291 91.7786 79.8693 91.87C79.7489 92.0545 79.7507 92.3057 79.7883 92.5175C79.9727 93.5589 80.7591 94.559 81.2891 95.4563C82.5163 97.5331 83.9038 99.4322 85.3734 101.341C88.6629 105.614 92.4306 109.473 96.7861 112.664C103.092 117.284 110.364 120.278 117.834 122.428C120.166 123.1 122.96 123.97 125.41 123.594L125.774 123.438C125.965 123.315 126.012 123.133 126.074 122.929C125.792 122.672 124.494 122.687 124.026 122.595C121.664 122.134 119.332 121.557 117.018 120.898C110.163 118.944 103.571 116.017 97.8079 111.788C94.3178 109.227 90.9747 105.962 88.2673 102.578C86.8036 100.749 85.394 98.8672 84.0941 96.9174C83.0879 95.4081 82.1831 93.7897 81.0776 92.353C80.8419 92.0464 80.6532 91.8034 80.2877 91.6609Z" fill="white"/>
<path d="M57.5355 67.5224C55.4434 67.4747 53.3193 68.0696 51.7605 69.5244C51.1674 70.0779 50.7118 70.6966 50.069 71.2158C52.2191 73.1049 54.8217 74.0754 57.6485 74.3135C58.0265 74.3452 58.697 74.1608 59.0055 74.3062C59.9366 74.7447 60.7958 75.5873 61.6684 76.1653C63.4633 77.3541 65.3036 78.2999 67.2849 79.1339L70.8525 80.3167L71.4792 79.6755L60.0884 73.7676C60.6389 73.5163 61.2912 73.343 61.8033 73.0286C62.1949 72.7882 62.4986 72.3233 62.5846 71.8737C62.7198 71.1662 62.2164 70.3311 61.807 69.7825C60.8577 68.5102 59.0664 67.7341 57.5355 67.5224Z" fill="white"/>
<path d="M133.614 124.76L133.456 124.718C133.159 124.804 132.913 125.08 132.686 125.282C133.886 126.676 135.67 127.783 137.137 128.882C140.431 131.349 143.796 133.723 147.071 136.217C150.83 139.078 154.541 142.01 158.118 145.096C159.104 145.947 160.012 146.887 161.003 147.743C160.274 148.139 159.241 148.797 158.384 148.782C157.988 148.775 157.554 148.556 157.21 148.374C155.153 147.288 153.768 145.099 152.374 143.31C151.734 142.489 151.061 141.695 150.416 140.878C149.492 139.707 148.313 137.904 146.808 137.488C146.302 137.348 146.048 137.391 145.599 137.672C145.135 137.962 144.856 138.412 144.738 138.938C144.539 139.83 144.915 140.448 145.384 141.164C145.691 140.795 146.005 140.552 146.397 140.284C147.187 140.853 147.859 141.628 148.526 142.332C149.698 143.601 150.917 144.826 152.091 146.093C152.821 146.879 153.536 147.678 154.265 148.466C154.527 148.749 154.855 149.19 155.181 149.392C156.332 150.105 157.703 150.122 158.983 149.795C160.271 149.466 161.737 148.614 163.081 148.743C163.869 148.819 164.624 149.048 165.405 149.13C167.097 149.307 168.434 148.866 169.754 147.826C168.427 147.668 167.062 148.231 165.713 147.945C164.219 147.629 162.885 146.919 161.617 146.085C159.12 144.443 156.933 142.344 154.599 140.489C152.969 139.194 151.35 137.879 149.693 136.618C146.47 134.165 143.16 131.831 139.897 129.433C138.744 128.586 137.569 127.751 136.435 126.88C135.511 126.17 134.605 125.375 133.614 124.76Z" fill="white"/>
<path d="M169.321 54.9718C169.252 54.9539 169.236 54.9463 169.155 54.9444C168.478 54.9292 167.587 55.2463 166.966 55.4853C165.437 56.0735 163.994 56.8662 162.518 57.5703C160.126 58.7123 157.716 59.8044 155.266 60.8175C152.46 61.9775 149.6 63.0554 146.735 64.061C140.266 66.3313 133.773 68.5341 127.3 70.7948C123.105 72.2596 118.864 73.6518 114.733 75.2908C112.745 76.0796 110.717 76.8525 108.846 77.895C108.397 78.1448 107.811 78.41 107.457 78.7846L107.6 78.8662C109.06 79.0325 110.756 78.8366 112.173 78.4521C114.843 77.7274 117.449 76.6336 120.042 75.6726C124.265 74.1079 128.489 72.5482 132.706 70.97C136.746 69.4581 140.795 67.9631 144.854 66.5038C148.301 65.2647 151.763 64.0798 155.146 62.671C159.515 60.8518 163.694 58.7033 167.75 56.2684C168.184 56.0077 169.295 55.5298 169.479 55.0817L169.321 54.9718Z" fill="white"/>
<path d="M108.435 80.0296C108.325 80.0039 108.327 79.9862 108.23 80.0198C107.847 80.1514 107.57 80.5654 107.397 80.9098C107.058 81.5833 107.01 82.263 107.027 83.0038C107.075 85.0027 107.642 87.1262 108.248 89.0241C109.551 93.102 111.567 96.9051 114.064 100.377C115.168 101.911 116.413 103.377 117.615 104.836C119.647 107.304 121.716 109.729 123.876 112.087C124.981 113.293 126.135 114.456 127.257 115.646C128.543 117.009 129.55 118.603 130.919 119.891C131.878 120.794 133.006 121.551 134.063 122.334C135.188 123.167 136.294 124.036 137.394 124.902C139.272 126.379 141.117 127.903 143.025 129.34C147.604 132.79 152.314 136.076 156.996 139.384C158.172 140.215 159.359 141.033 160.517 141.889C161.767 142.812 163.004 143.778 164.308 144.624C165.284 145.258 166.359 145.812 167.393 146.346C167.897 146.606 168.954 147.143 169.512 146.924C169.656 146.867 169.631 146.857 169.691 146.731C169.54 146.633 169.413 146.525 169.279 146.407L169.338 146.362L170.119 146.505C170.361 146.542 170.519 146.552 170.72 146.407L170.705 146.228C170.027 145.166 168.391 144.515 167.327 143.884C166.152 143.186 164.915 142.444 163.808 141.649C162.923 141.033 161.978 140.477 161.078 139.883C158.194 137.979 155.307 136.04 152.494 134.034C151.505 133.33 150.544 132.573 149.565 131.854C145.891 129.159 142.226 126.445 138.751 123.491C137.579 122.495 136.484 121.394 135.351 120.353C131.25 116.58 127.234 112.646 123.498 108.509C122.063 106.921 120.664 105.232 119.37 103.528C119.048 103.103 118.331 102.323 118.358 101.785C119.061 101.426 120.639 101.798 121.422 101.856C122.093 101.906 122.778 101.908 123.451 101.895C126.228 101.843 129.206 101.455 131.698 100.18C131.417 99.997 130.921 99.8351 130.583 99.8406C129.321 99.8605 128.054 100.265 126.817 100.485C125.303 100.754 123.648 100.837 122.11 100.752C119.118 100.586 116.42 99.8422 114.367 97.5289C113.55 96.6077 112.894 95.5067 112.279 94.4465C109.766 90.1155 108.166 85.0711 108.435 80.0296Z" fill="white"/>
</svg>
